<?xml version="1.0" standalone="no"?>
<!DOCTYPE svg PUBLIC "-//W3C//DTD SVG 20010904//EN"
 "http://www.w3.org/TR/2001/REC-SVG-20010904/DTD/svg10.dtd">
<svg version="1.0" xmlns="http://www.w3.org/2000/svg"
 width="450.000000pt" height="450.000000pt" viewBox="0 0 450.000000 450.000000"
 preserveAspectRatio="xMidYMid meet">

<g transform="translate(0.000000,450.000000) scale(0.100000,-0.100000)"
fill="#000000" stroke="none">
<path fill="white" d="M2120 4485 c-14 -3 -70 -10 -125 -16 -516 -57 -996 -287 -1354 -649
-175 -176 -301 -351 -409 -566 -69 -137 -101 -212 -130 -304 -80 -257 -93
-344 -99 -641 -5 -257 0 -336 38 -524 37 -185 96 -352 190 -539 310 -614 893
-1054 1569 -1184 201 -39 267 -44 490 -39 118 3 244 10 280 16 398 59 769 217
1075 460 547 432 855 1061 855 1745 0 513 -170 1002 -484 1391 -377 467 -886
751 -1501 835 -86 12 -354 22 -395 15z m-850 -1280 c497 -32 763 -45 932 -45
l178 0 2 -330 3 -331 43 -19 42 -19 0 349 0 350 158 0 c142 0 269 6 872 40
213 12 216 11 260 -76 23 -45 25 -63 29 -204 8 -343 -86 -796 -254 -1226 -92
-236 -191 -414 -301 -545 -75 -88 -118 -125 -194 -165 l-55 -29 -564 -3 -564
-3 -62 30 c-135 63 -318 277 -444 522 l-72 139 -67 0 c-166 0 -422 76 -557
165 -60 40 -154 132 -204 201 -36 49 -84 143 -106 209 -48 144 -60 398 -25
537 56 223 223 393 444 453 68 18 234 18 506 0z"/>
<path fill="white" d="M828 2914 c-82 -19 -130 -46 -176 -99 -52 -59 -73 -119 -79 -230 -4
-72 -1 -108 16 -175 62 -248 193 -370 471 -441 92 -23 134 -25 127 -5 -16 42
-99 312 -117 381 -26 101 -45 208 -75 430 -23 165 -19 155 -68 154 -23 0 -68
-7 -99 -15z"/>
<path fill="white" d="M2091 2492 c-21 -22 -56 -81 -83 -142 -25 -58 -83 -184 -128 -280
-179 -383 -183 -397 -133 -463 25 -33 82 -66 369 -214 307 -159 345 -176 399
-180 87 -7 103 9 188 186 159 333 287 623 287 650 0 35 -30 90 -62 114 -18 13
-131 74 -250 135 -157 80 -220 107 -226 99 -5 -7 -23 -43 -39 -81 -26 -58 -29
-73 -20 -100 5 -17 11 -36 13 -42 1 -6 40 -32 86 -57 46 -25 99 -62 118 -81
30 -32 35 -44 38 -99 4 -58 0 -71 -53 -192 -39 -88 -57 -141 -56 -165 6 -127
7 -121 -27 -151 -42 -38 -89 -39 -131 -3 -64 54 -48 149 32 184 42 19 44 22
100 157 58 140 66 176 44 204 -7 9 -49 37 -94 63 l-82 47 -43 -14 c-47 -15
-59 -34 -145 -225 -31 -70 -35 -87 -25 -103 21 -34 15 -94 -14 -128 -22 -27
-32 -31 -74 -31 -42 0 -52 4 -74 31 -37 44 -36 106 2 141 15 14 38 31 51 38
29 15 155 272 151 310 -9 96 -5 122 23 146 16 13 37 24 48 24 16 0 29 20 60
84 21 46 39 87 39 90 0 3 -36 24 -80 46 -109 55 -158 55 -209 2z"/>
</g>
</svg>
