<?xml version="1.0" standalone="no"?>
<!DOCTYPE svg PUBLIC "-//W3C//DTD SVG 20010904//EN"
 "http://www.w3.org/TR/2001/REC-SVG-20010904/DTD/svg10.dtd">
<svg version="1.0" xmlns="http://www.w3.org/2000/svg"
 width="450.000000pt" height="450.000000pt" viewBox="0 0 450.000000 450.000000"
 preserveAspectRatio="xMidYMid meet">

<g transform="translate(0.000000,450.000000) scale(0.100000,-0.100000)"
fill="#000000" stroke="none">
<path fill="white" d="M0 2250 l0 -2250 2250 0 2250 0 0 2250 0 2250 -2250 0 -2250 0 0
-2250z m2624 1541 c3 -4 25 -11 48 -15 76 -10 166 -31 174 -38 4 -5 16 -8 26
-8 10 0 26 -4 36 -9 9 -5 28 -13 42 -19 182 -71 330 -170 476 -316 130 -131
192 -213 245 -326 6 -14 20 -42 30 -63 10 -20 21 -53 25 -72 3 -19 10 -38 15
-41 5 -3 9 -20 9 -38 0 -17 4 -36 9 -41 33 -35 52 -457 26 -582 -8 -42 -15
-90 -15 -109 0 -19 -4 -43 -10 -54 -5 -11 -14 -28 -19 -39 -5 -10 -13 -36 -17
-57 -4 -22 -15 -51 -25 -65 -10 -14 -21 -38 -25 -55 -4 -16 -18 -42 -31 -57
-12 -16 -23 -34 -23 -40 0 -6 -11 -23 -24 -37 -113 -119 -191 -196 -218 -215
-48 -35 -212 -115 -234 -115 -11 0 -25 -5 -31 -11 -16 -16 -271 -24 -319 -10
-156 48 -281 170 -301 294 -5 36 -7 38 -20 22 -7 -11 -13 -25 -13 -32 0 -25
-69 -120 -123 -169 -30 -27 -85 -65 -123 -84 -63 -31 -78 -35 -176 -38 -97 -4
-116 -1 -190 23 -100 33 -142 61 -230 152 -46 48 -77 92 -99 139 -44 97 -45
101 -63 176 -32 135 -15 544 25 620 5 10 9 27 9 37 0 11 5 23 10 26 6 3 10 13
10 21 0 15 25 69 76 163 58 107 233 272 339 320 17 7 38 17 47 22 10 5 27 9
37 9 11 0 23 5 26 10 4 6 62 10 140 10 78 0 136 -4 140 -10 3 -5 16 -10 28
-10 29 -1 108 -60 143 -107 41 -56 43 -58 44 -37 1 52 13 120 22 132 8 9 62
12 208 12 164 0 200 -3 210 -15 10 -12 9 -49 -4 -188 -25 -268 -25 -275 -32
-402 -3 -66 -10 -125 -15 -131 -5 -6 -10 -119 -11 -250 -3 -229 -2 -241 19
-286 27 -56 46 -68 108 -68 61 0 107 23 151 74 37 42 104 170 104 199 0 9 5
19 10 22 6 3 10 17 10 31 0 14 5 34 11 45 11 22 31 234 32 344 1 119 -26 304
-54 373 -5 12 -13 32 -18 45 -47 124 -119 232 -218 328 -68 66 -197 159 -220
159 -7 0 -28 9 -48 20 -20 11 -44 20 -53 20 -10 0 -22 4 -27 8 -16 13 -84 30
-168 42 -151 20 -494 7 -521 -20 -5 -5 -19 -10 -30 -10 -23 0 -92 -22 -102
-33 -4 -4 -15 -7 -24 -7 -22 0 -109 -45 -195 -101 -131 -86 -365 -332 -365
-385 0 -7 -6 -17 -14 -21 -8 -4 -21 -24 -30 -43 -8 -19 -20 -42 -24 -50 -18
-30 -55 -120 -70 -170 -14 -46 -38 -159 -51 -241 -14 -85 -15 -406 -1 -414 6
-3 10 -25 10 -47 0 -41 22 -140 42 -188 6 -14 14 -34 18 -45 5 -11 15 -36 24
-57 9 -20 16 -39 16 -42 0 -18 102 -158 158 -217 85 -91 168 -153 267 -199
157 -74 232 -96 355 -106 30 -3 64 -9 75 -15 25 -12 328 -5 430 9 60 9 145 25
258 49 15 3 30 9 33 14 3 5 16 9 29 9 13 0 27 5 30 10 3 5 14 10 23 10 9 0 41
12 70 27 53 27 54 27 68 8 11 -14 14 -60 14 -192 l0 -174 -37 -15 c-21 -9 -51
-22 -68 -28 -48 -21 -100 -36 -119 -36 -10 0 -32 -7 -49 -14 -36 -17 -164 -36
-236 -36 -26 0 -56 -7 -67 -15 -28 -21 -401 -22 -430 0 -11 8 -42 14 -76 15
-63 0 -158 17 -173 31 -5 5 -20 9 -34 9 -30 0 -122 26 -176 50 -22 10 -56 24
-75 31 -19 7 -52 23 -72 36 -21 13 -40 23 -42 23 -3 0 -43 24 -88 54 -184 120
-330 272 -445 461 -30 49 -93 184 -93 198 0 9 -4 19 -10 22 -5 3 -10 15 -10
26 0 10 -4 27 -9 37 -15 30 -30 86 -37 140 -4 29 -11 55 -15 58 -12 7 -12 621
0 628 5 3 12 35 16 71 3 36 11 67 16 70 5 4 9 19 9 35 0 16 4 32 10 35 5 3 10
17 10 30 0 13 4 26 9 29 5 3 12 21 15 40 9 47 102 228 169 328 102 152 252
308 402 418 65 48 83 58 220 127 50 25 98 49 107 54 10 5 25 9 33 9 8 0 23 4
33 9 51 26 130 47 225 58 20 3 40 9 43 14 7 12 621 12 628 0z"/>
<path fill="white" d="M2170 2713 c-52 -17 -83 -39 -118 -81 -44 -52 -112 -188 -112 -223 0
-12 -6 -30 -14 -38 -18 -20 -36 -157 -36 -271 1 -178 26 -263 101 -336 37 -36
44 -39 109 -42 95 -6 130 3 184 44 41 31 116 130 116 153 0 4 6 21 14 37 8 16
20 52 27 79 6 28 15 59 20 70 19 47 36 382 20 398 -6 6 -11 21 -11 34 0 50
-68 140 -125 168 -32 14 -141 20 -175 8z"/>
</g>
</svg>
